<svg xmlns="http://www.w3.org/2000/svg" viewBox="0 0 1164.43 888.46"><defs><style>.cls-1{fill:#29abe2;}.cls-2{fill:#218dba;}.cls-3,.cls-4{fill:none;stroke-miterlimit:10;}.cls-3{stroke:#000;stroke-width:6px;}.cls-4{stroke:#1b1464;stroke-linecap:round;stroke-width:40px;}</style></defs><g id="Vrstva_2" data-name="Vrstva 2"><g id="Vrstva_3" data-name="Vrstva 3"><path class="cls-1" d="M892.38,66.17l-54.32,153-85.81,49.63L731.11,505.9,615.4,831.84C575.7,859,536,876.46,487.34,864.78a144.64,144.64,0,0,1-51-23.61,155.8,155.8,0,0,1,3.8-22.41l131.2-369.58L704.42,251.85l-35.3-92.63,54.32-153L746.9,36.58l-.08.22-34.75,97.9-5,14.11,22.62,59.36.13,0a32.37,32.37,0,0,1,30.3,10.75l.08.11,55-31.81L849.9,89.38,855,75Z"/><path class="cls-2" d="M849.82,89.35l.08,0-34.72,97.81-55,31.81-.08-.11a32.37,32.37,0,0,0-30.3-10.75l-.13,0-22.62-59.36,5-14.11-.05-.12,34.72-97.81.08,0,108,38.35Z"/><path class="cls-3" d="M892.38,66.17l-54.32,153-85.81,49.63L731.11,505.9,615.4,831.84C575.7,859,536,876.46,487.34,864.78a144.64,144.64,0,0,1-51-23.61,155.8,155.8,0,0,1,3.8-22.41l131.2-369.58L704.42,251.85l-35.3-92.63,54.32-153L746.9,36.58,855,75Z"/><path class="cls-4" d="M20,840.35C70.1,750.07,148.24,675.76,236.42,683.1c91.47,7.61,118.63,99.77,199.93,158.07a144.64,144.64,0,0,0,51,23.61C536,876.46,575.7,859,615.4,831.84c66-45.16,132-117.15,238.9-126.82,121.92-11,225.52,65.41,290.13,125.93"/></g></g></svg>