<svg xmlns="http://www.w3.org/2000/svg" viewBox="0 0 50 50"><defs><style>.cls-1{fill:#0e94cf;}.cls-2{fill:#026e99;}.cls-3{fill:none;stroke:#1b1464;stroke-linecap:round;stroke-miterlimit:10;stroke-width:2px;}</style></defs><g id="Vrstva_3" data-name="Vrstva 3"><path class="cls-1" d="M40.33,6.45l-3.46,7.87-5.52,1.82L30.06,29,23.52,43.72c-.75-.39-1.49-.76-2.24-1.1a22.68,22.68,0,0,0-6.84-2.06,15.19,15.19,0,0,0-1.88-.12l7.16-16.27,8.53-9.47L25.94,9.23,29.4,1.36,30.93,3.3h0l-2.22,5-.32.73,1.47,3.5h0a2.71,2.71,0,0,1,1.95.91h0l3.53-1.17,2.21-5,.34-.74Z"/><path class="cls-2" d="M37.59,7.28h0l-2.21,5-3.54,1.17h0a2.69,2.69,0,0,0-2-.91h0L28.39,9.05l.32-.72h0l2.21-5h0l7,3.25Z"/><path class="cls-3" d="M1.13,45.47a16.71,16.71,0,0,1,11.43-5,15.19,15.19,0,0,1,1.88.12,22.68,22.68,0,0,1,6.84,2.06c.75.34,1.49.71,2.24,1.1,1.53.78,3.11,1.62,4.95,2.43.79.36,1.62.71,2.52,1,4,1.51,7.25,3.58,18-1.34"/></g></svg>