<svg xmlns="http://www.w3.org/2000/svg" viewBox="0 0 3292.46 634.97"><defs><style>.cls-1,.cls-2{fill:#363636;}.cls-2,.cls-3,.cls-4{stroke:#000;stroke-miterlimit:10;}.cls-3{fill:#833131;}.cls-4{fill:#727378;}</style></defs><g id="Vrstva_2" data-name="Vrstva 2"><g id="Vrstva_4" data-name="Vrstva 4"><polygon class="cls-1" points="1477.87 0 1477.87 7.49 1554.05 7.49 1554.05 22.47 1559.73 22.47 1559.73 7.49 1635.91 7.49 1635.91 0 1477.87 0"/><polygon class="cls-2" points="1671.14 267.32 1671.14 406.22 945.18 406.22 945.18 290.81 922.71 291.07 922.71 266.3 939.05 249.96 1025.86 249.96 1025.86 282.64 1084.07 282.64 1029.94 146.81 1124.92 100.86 1211.73 274.47 1275.05 274.47 1218.88 127.41 1332.24 84.51 1419.05 285.71 1432.33 285.71 1432.33 277.54 1449.69 277.54 1453.77 293.88 1475.22 288.77 1475.22 276.51 1502.8 278.56 1502.8 68.17 1520.16 68.17 1520.16 27.32 1588.58 27.32 1588.58 67.15 1611.05 67.15 1611.05 178.47 1650.88 178.47 1650.88 267.32 1671.14 267.32"/><polygon class="cls-3" points="195.14 587.2 193.52 632.94 73.26 634.47 73.26 552.53 195.14 587.2"/><rect class="cls-2" x="1797.43" y="376.34" width="283.03" height="29.88"/><polyline class="cls-2" points="2009.36 310.98 2249.36 310.98 2249.36 323.23 2009.36 323.23"/><polygon class="cls-2" points="2080.46 376.34 1757.74 376.34 1788.37 302.81 2009.99 302.81 2015.1 324.25 2080.46 376.34"/><polyline class="cls-2" points="2399.22 356.17 2639.22 356.17 2639.22 368.43 2399.22 368.43"/><polygon class="cls-2" points="2450.72 406.22 2153.6 406.22 2177.85 348 2399.47 348 2404.58 369.45 2450.72 406.22"/><polyline class="cls-2" points="924.24 269.23 787.14 269.23 787.14 278.3 924.24 278.3"/><polyline class="cls-2" points="658.8 341.87 418.8 341.87 418.8 354.13 658.8 354.13"/><polygon class="cls-2" points="909.68 406.22 586.97 406.22 652.33 354.13 657.43 332.68 879.05 332.68 909.68 406.22"/><path class="cls-3" d="M3144,632.94H355.9L195.14,587.2,73.26,552.53.5,531.83V520.3H3147.05c-1.59,5.76-1.71,10.72,0,14.6,16.85,38.3,33.7,12.25,39.83,55.15S3144,632.94,3144,632.94Z"/><path class="cls-4" d="M3291.05,354.13s-129.89,115.05-144,166.17H.5V436.86l334-12.26,70.46-18.38H2828.41l52.09-27.58Z"/></g></g></svg>