<svg xmlns="http://www.w3.org/2000/svg" viewBox="0 0 50 50"><defs><style>.cls-1{fill:#0e94cf;}.cls-2{fill:#026e99;}.cls-3{fill:#ffbd00;}.cls-4{fill:#ff9e3d;}.cls-5{fill:#ffdb63;}.cls-6{fill:#ffedb5;}</style></defs><g id="Vrstva_3" data-name="Vrstva 3"><path class="cls-1" d="M46.84,5.62l-3.46,7.87-5.52,1.82L36.57,28.15,30,42.89c-.75-.39-1.49-.76-2.24-1.1A22.68,22.68,0,0,0,21,39.73a15.19,15.19,0,0,0-1.88-.12l7.16-16.27,8.53-9.47L32.45,8.4,35.91.53l1.53,1.94h0l-2.22,5-.32.73,1.47,3.5h0a2.71,2.71,0,0,1,2,.91h0l3.53-1.17,2.21-5,.34-.74Z"/><path class="cls-2" d="M44.1,6.45h0l-2.21,5-3.54,1.17h0a2.69,2.69,0,0,0-2-.91h0L34.9,8.22l.32-.72h0l2.21-5h0l7,3.25Z"/><path class="cls-3" d="M14.39,48,2.21,31.42l11.56,9.35L3.32,16.91,14.76,32V25.4l1.86,4.06-2.11-19L20.1,24.29,21.1,1s2.61,22.88,2.73,23.49S26,15.92,26,15.92l-.5,12.18L32,18,27.69,32.28l9.44-7.75L27.19,39.67l6.22-4.19-3,7,8-5.54-10.2,10.7S26.44,50,21.6,50,14.39,48,14.39,48Z"/><path class="cls-4" d="M14.92,48.35l-9.11-13,9.48,7.17L6.87,22.75l9.18,13.06-.61-7,2.42,4.67-2-18.14,4.85,13,.66-19.9s2.05,20.24,2.15,20.71,1.68-7.89,1.68-7.89l-.56,9.78,4.23-6.39L26.62,34.1l6.8-5.72-8,13.1,5.78-3.37-2.09,5.71,6.61-4.51-8.2,9A12.18,12.18,0,0,1,21.29,50,13.22,13.22,0,0,1,14.92,48.35Z"/><path class="cls-5" d="M15.46,48.72,7.71,37.28l8.91,6.81L9,26.51l7.54,10.62-.55-6.37,2.45,4.08-1.84-17L21,30.1l.53-17.76,1.94,18.77L24.91,24l-.62,8.29,3.77-5.92-2.14,8.9,6.32-5.54-7.7,12.64c1.56-.91,6-3.39,6-3.39l-2.06,5.64,6-4.09-7.67,8.28A10.63,10.63,0,0,1,21.24,50,11.44,11.44,0,0,1,15.46,48.72Z"/><path class="cls-6" d="M18.6,49.69l-2.75-4.47,3.4,1.84L16.59,40l3,3.86-1.7-7.57,2.29,4.5-.21-5.58,1.39,4.61,1.46-7.62.08,8.47,2.22-2.76-1.41,5.93,3-1.67L24,46.6l4-.83-3.94,3.95A12.94,12.94,0,0,1,18.6,49.69Z"/></g></svg>