<svg xmlns="http://www.w3.org/2000/svg" viewBox="0 0 50 50"><defs><style>.cls-1{stroke:#000;stroke-miterlimit:10;stroke-width:0.5px;}</style></defs><g id="Vrstva_3" data-name="Vrstva 3"><polygon class="cls-1" points="25.17 14.88 25.5 14.88 25.5 14.32 28.55 14.32 28.55 14.04 22.12 14.04 22.12 14.32 25.17 14.32 25.17 14.88"/><path class="cls-1" d="M40.54,26.94v-.85H39.29l-1.41-1.8,0-.14h5.69v-.42H37.8l0-.18H33l-.66,2.54H29.63V23.33h-.75V20.24H27.42V16.37h-.83V15H24.07V16.4h-.64V23H19.91L17.15,17,13,18.46l2.07,5.12-3.32.36-4,2-5.46.61L.93,27.87l.17.21H1a20.9,20.9,0,0,1,1.58,4l.19.7A22.63,22.63,0,0,1,3.26,36h40A28.34,28.34,0,0,1,44.58,33c.17-.34.34-.66.53-1s4-5.78,4-5.78Z"/></g></svg>