<svg xmlns="http://www.w3.org/2000/svg" viewBox="0 0 300 50"><defs><style>.cls-1,.cls-3{fill:#363636;}.cls-2{fill:#833131;}.cls-2,.cls-3,.cls-4{stroke:#000;stroke-miterlimit:10;stroke-width:0.5px;}.cls-4{fill:#727378;}</style></defs><g id="Vrstva_4" data-name="Vrstva 4"><polygon class="cls-1" points="87.15 0 87.15 0.64 93.42 0.64 93.42 1.91 94.11 1.91 94.11 0.64 100.38 0.64 100.38 0 87.15 0"/><polygon class="cls-2" points="21.27 43.33 21.05 49.78 5.32 49.8 5.32 43.33 21.27 43.33"/><path class="cls-2" d="M278.65,49.61l0,.19H18.5c0-.11-8.74-8.9-8.74-8.9H281.92A13.77,13.77,0,0,0,278.65,49.61Z"/><polygon class="cls-3" points="96.1 14.74 96.1 11.3 98.47 8.94 95.21 8.94 95.21 6.35 98.47 4.66 94.8 4.66 99.04 1.98 99.04 1.59 87.9 1.59 87.9 1.98 92.25 4.66 88.48 4.66 91.73 6.35 91.73 8.94 88.48 8.94 90.84 11.3 90.84 14.74 84.71 14.74 84.71 20.11 86.24 20.11 86.24 22.36 65.69 22.36 65.69 28.04 56.88 28.04 56.88 33.34 87.45 33.34 87.45 32.17 99.14 32.17 99.14 21.38 101.43 21.38 101.43 14.74 96.1 14.74"/><path class="cls-4" d="M300,32v2.87l-8.69.1a26,26,0,0,0-9.42,5.93H9.76L5.89,36.08.3,36V32Z"/><rect class="cls-3" x="123.58" y="30.32" width="0.03" height="0.78"/><ellipse class="cls-3" cx="123.58" cy="31.31" rx="0.29" ry="0.29"/><rect class="cls-3" x="111.48" y="30.24" width="0.03" height="0.78"/><ellipse class="cls-3" cx="111.88" cy="31.23" rx="0.29" ry="0.29"/><ellipse class="cls-3" cx="111.12" cy="31.23" rx="0.29" ry="0.29"/><path class="cls-3" d="M126.55,28.34a4.25,4.25,0,0,0-3.07-1.2,4.82,4.82,0,0,0-2.84.57l-11.93.1-2.59-3.49-2.7,0,0,.14,1.35,3.22h-.66l.2,1.83.66,0V30h.85v.38l5.79-.05,2.81,1.23,6.54.06-2-.87,6.77.05v-.3s5.17-.28,5.27-.61S127,28.46,126.55,28.34Z"/><rect class="cls-3" x="151.78" y="30.32" width="0.03" height="0.78"/><ellipse class="cls-3" cx="151.78" cy="31.31" rx="0.29" ry="0.29"/><rect class="cls-3" x="139.67" y="30.24" width="0.03" height="0.78"/><ellipse class="cls-3" cx="140.07" cy="31.23" rx="0.29" ry="0.29"/><ellipse class="cls-3" cx="139.31" cy="31.23" rx="0.29" ry="0.29"/><path class="cls-3" d="M154.75,28.34a4.27,4.27,0,0,0-3.07-1.2,4.8,4.8,0,0,0-2.84.57l-11.93.1-2.59-3.49-2.71,0,0,.14L133,27.7h-.66l.2,1.83.66,0V30h.86v.38l5.79-.05,2.81,1.23,6.53.06-2-.87,6.77.05v-.3s5.17-.28,5.26-.61S155.21,28.46,154.75,28.34Z"/><rect class="cls-3" x="181.56" y="30.32" width="0.03" height="0.78"/><ellipse class="cls-3" cx="181.56" cy="31.31" rx="0.29" ry="0.29"/><rect class="cls-3" x="169.46" y="30.24" width="0.03" height="0.78"/><ellipse class="cls-3" cx="169.86" cy="31.23" rx="0.29" ry="0.29"/><ellipse class="cls-3" cx="169.1" cy="31.23" rx="0.29" ry="0.29"/><path class="cls-3" d="M184.53,28.34a4.22,4.22,0,0,0-3.06-1.2,4.78,4.78,0,0,0-2.84.57l-11.94.1-2.59-3.49-2.7,0,0,.14,1.35,3.22h-.66l.21,1.83.66,0V30h.85v.38l5.79-.05,2.8,1.23,6.54.06-2-.87,6.78.05v-.3s5.17-.28,5.26-.61S185,28.46,184.53,28.34Z"/><rect class="cls-3" x="212.71" y="30.32" width="0.03" height="0.78"/><ellipse class="cls-3" cx="212.71" cy="31.31" rx="0.29" ry="0.29"/><rect class="cls-3" x="200.61" y="30.24" width="0.03" height="0.78"/><ellipse class="cls-3" cx="201.01" cy="31.23" rx="0.29" ry="0.29"/><ellipse class="cls-3" cx="200.25" cy="31.23" rx="0.29" ry="0.29"/><path class="cls-3" d="M215.68,28.34a4.22,4.22,0,0,0-3.06-1.2,4.84,4.84,0,0,0-2.85.57l-11.93.1-2.59-3.49-2.7,0,0,.14L194,27.7h-.66l.2,1.83.67,0V30H195v.38l5.78-.05,2.81,1.23,6.54.06-2-.87,6.78.05v-.3s5.17-.28,5.26-.61S216.14,28.46,215.68,28.34Z"/><rect class="cls-3" x="241.31" y="30.32" width="0.03" height="0.78"/><ellipse class="cls-3" cx="241.31" cy="31.31" rx="0.29" ry="0.29"/><rect class="cls-3" x="229.21" y="30.24" width="0.03" height="0.78"/><ellipse class="cls-3" cx="229.61" cy="31.23" rx="0.29" ry="0.29"/><ellipse class="cls-3" cx="228.84" cy="31.23" rx="0.29" ry="0.29"/><path class="cls-3" d="M244.28,28.34a4.25,4.25,0,0,0-3.07-1.2,4.82,4.82,0,0,0-2.84.57l-11.93.1-2.59-3.49-2.71,0,.05.14,1.36,3.22h-.66l.2,1.83.66,0V30h.85v.38l5.79-.05,2.81,1.23,6.53.06-2-.87,6.77.05v-.3s5.17-.28,5.26-.61S244.74,28.46,244.28,28.34Z"/><rect class="cls-3" x="284.92" y="20.74" width="0.03" height="0.78" transform="translate(9.03 95.36) rotate(-19.3)"/><ellipse class="cls-3" cx="285.12" cy="21.7" rx="0.29" ry="0.29" transform="translate(8.85 95.45) rotate(-19.3)"/><rect class="cls-3" x="273.48" y="24.67" width="0.03" height="0.78" transform="translate(7.09 91.8) rotate(-19.3)"/><ellipse class="cls-3" cx="274.05" cy="25.49" rx="0.29" ry="0.29" transform="translate(6.97 92.01) rotate(-19.3)"/><ellipse class="cls-3" cx="273.33" cy="25.75" rx="0.29" ry="0.29" transform="translate(6.85 91.78) rotate(-19.3)"/><path class="cls-3" d="M286.94,17.92a4.21,4.21,0,0,0-3.29-.12,4.75,4.75,0,0,0-2.49,1.48l-11.23,4-3.6-2.44-2.54.92.09.12,2.34,2.58-.62.23.8,1.65.61-.24.16.44.8-.29.13.36,5.45-2,3.06.24,6.18-2.11-2.2-.15,6.4-2.19-.08-.28s4.78-2,4.76-2.32S287.42,17.88,286.94,17.92Z"/><path class="cls-3" d="M26.74,25.1v-.49H18v-.53h-.42v.53H8.74v.49h8.79v.83H15.86L13.78,27.5l-7,.7L5.54,25.56,6.81,26l.1-.29-1.56-.56L5,24.53,6.29,23.2,6.07,23,4.9,24.23l-.28-.57-1.21.64,0,.19-1.54-.56-.11.28,1.77.64.19.59L2.43,26.86l.22.21,1.22-1.3,1,3.16-.25.89,11,.49v1.21h4.14V30h3.36v.55h-.29v1.05h1.65v-.49h2.31v-.41l-2.33,0v-.16h-.53l0-.55h2.67v-.49l-1.95-1s-.08-1-1.54-1.78a8.28,8.28,0,0,0-3.65-.73H18V25.1Z"/><path class="cls-3" d="M53.48,25.1v-.49H44.69v-.53h-.42v.53H35.48v.49h8.79v.83H42.6L40.52,27.5l-7,.7-1.27-2.64,1.27.46.1-.29-1.56-.56-.31-.64L33,23.2,32.81,23l-1.17,1.24-.28-.57-1.21.64.05.19-1.54-.56-.11.28,1.77.64.19.59-1.34,1.42.22.21,1.22-1.3,1,3.16-.25.89,11,.49v1.21h4.14V30h3.36v.55h-.29v1.05h1.65v-.49h2.31v-.41l-2.33,0v-.16h-.52l0-.55h2.67v-.49l-1.95-1s-.08-1-1.54-1.78a8.28,8.28,0,0,0-3.65-.73H44.69V25.1Z"/></g></svg>