<svg xmlns="http://www.w3.org/2000/svg" viewBox="0 0 200 50"><defs><style>.cls-1,.cls-3{fill:#363636;}.cls-2{fill:#833131;}.cls-2,.cls-3,.cls-4{stroke:#000;stroke-miterlimit:10;stroke-width:0.5px;}.cls-4{fill:#727378;}</style></defs><g id="Vrstva_4" data-name="Vrstva 4"><polygon class="cls-1" points="96.34 0 96.34 0.64 102.61 0.64 102.61 1.91 103.3 1.91 103.3 0.64 109.57 0.64 109.57 0 96.34 0"/><polygon class="cls-2" points="13.72 45.02 13.93 48.85 3.94 48.73 3.94 42.29 13.72 45.02"/><polyline class="cls-3" points="171.23 28.81 185.21 28.81 185.21 30.27 171.23 30.27"/><polygon class="cls-3" points="174.23 34.78 156.92 34.78 158.33 27.84 171.24 27.84 171.54 30.4 174.23 34.78"/><polyline class="cls-3" points="60.99 24.93 49.29 24.93 49.29 25.9 60.99 25.9"/><polygon class="cls-3" points="73.23 30.01 57.49 30.01 60.68 25.9 60.93 24.21 71.74 24.21 73.23 30.01"/><polygon class="cls-3" points="149.11 36.31 143.32 27.47 139.06 27.13 139.06 24.19 136 24.23 136 27.47 130.57 27.47 130.57 21.34 118.64 21.34 118.64 16.24 112.54 16.24 112.54 15.48 108.61 15.48 108.61 5.3 106.39 5.3 106.39 1.66 99.62 1.66 99.62 5.39 97.9 5.39 97.9 22.03 89.02 22.03 88.68 28.78 86.47 28.78 85.11 24.58 78.81 24.58 78.81 29.14 54.3 29.14 50.89 36.31 111.36 36.31 113.02 38.88 149.11 36.31"/><polygon class="cls-4" points="199.49 33 192.4 42.02 189.18 46.12 9.37 45.54 5.91 44.02 1.06 43.03 0.27 36.72 40.75 36.67 44.49 33 199.49 33"/><polygon class="cls-2" points="192.4 42.02 186.51 49.81 22.11 49.81 1.12 43.71 1.01 42.02 192.4 42.02"/><path class="cls-1" d="M35.74,28.65V28H24.26v-.68h-.55V28H12.23v.64H23.71v1.08H21.52l-2.71,2.06-9.09.91L8.06,29.26l1.65.6.13-.38-2-.73-.41-.84L9,26.17l-.29-.27L7.22,27.52l-.36-.75-1.59.85.07.23-2-.73-.13.38,2.3.83.25.77L4,31l.29.28,1.58-1.69,1.3,4.11-.31,1.17,14.29.63V37h5.4V35h4.39l0,.71h-.37v1.38H32.7l0-.63h3V36l-3.05,0v-.22H32L32,35h3.5v-.64L32.9,33s-.1-1.27-2-2.33a10.79,10.79,0,0,0-4.76-1H24.26V28.65Z"/></g></svg>