<svg xmlns="http://www.w3.org/2000/svg" viewBox="0 0 250 50"><defs><style>.cls-1,.cls-2{fill:#363636;}.cls-2,.cls-3,.cls-4{stroke:#000;stroke-miterlimit:10;stroke-width:0.5px;}.cls-3{fill:#833131;}.cls-4{fill:#727378;}</style></defs><g id="Vrstva_4" data-name="Vrstva 4"><polygon class="cls-1" points="111.23 0.06 111.23 0.7 117.51 0.7 117.51 1.97 118.19 1.97 118.19 0.7 124.46 0.7 124.46 0.06 111.23 0.06"/><polygon class="cls-2" points="126.74 20.92 126.74 31.89 71.78 31.89 71.78 22.78 70.08 22.8 70.08 20.84 71.32 19.55 77.89 19.55 77.89 22.13 82.3 22.13 78.2 11.41 85.39 7.78 91.96 21.49 96.75 21.49 92.5 9.88 101.08 6.49 107.65 22.37 108.66 22.37 108.66 21.73 109.97 21.73 110.28 23.02 111.91 22.61 111.91 21.65 113.99 21.81 113.99 5.2 115.31 5.2 115.31 1.97 120.49 1.97 120.49 5.12 122.19 5.12 122.19 13.91 125.2 13.91 125.2 20.92 126.74 20.92"/><polygon class="cls-3" points="15 46.17 14.88 49.78 5.78 49.91 5.78 43.44 15 46.17"/><rect class="cls-2" x="136.3" y="29.53" width="21.43" height="2.36"/><polyline class="cls-2" points="152.9 24.43 171.06 24.43 171.06 25.4 152.9 25.4"/><polygon class="cls-2" points="158.28 29.59 133.85 29.59 136.17 23.78 152.94 23.78 153.33 25.48 158.28 29.59"/><polyline class="cls-2" points="181.85 27.94 200.02 27.94 200.02 28.9 181.85 28.9"/><polygon class="cls-2" points="185.75 31.89 163.26 31.89 165.1 27.29 181.87 27.29 182.26 28.98 185.75 31.89"/><polyline class="cls-2" points="70.2 21.07 59.82 21.07 59.82 21.79 70.2 21.79"/><polyline class="cls-2" points="50.1 26.81 31.93 26.81 31.93 27.77 50.1 27.77"/><polygon class="cls-2" points="69.09 31.89 44.66 31.89 49.61 27.77 50 26.08 66.78 26.08 69.09 31.89"/><path class="cls-3" d="M238.23,49.79H27.17L15,46.17,5.78,43.44.27,41.8v-.91H238.46a1.9,1.9,0,0,0,0,1.16c1.28,3,2.56,1,3,4.35S238.23,49.79,238.23,49.79Z"/><path class="cls-4" d="M249.37,27.77s-9.84,9.09-10.91,13.12H.27V34.31l25.28-1,5.33-1.45H214.34l3.95-2.18Z"/></g></svg>