<svg xmlns="http://www.w3.org/2000/svg" viewBox="0 0 100 50"><defs><style>.cls-1,.cls-2{fill:#363636;}.cls-1,.cls-3,.cls-4{stroke:#000;stroke-miterlimit:10;stroke-width:0.5px;}.cls-3{fill:#833131;}.cls-4{fill:#727378;}</style></defs><g id="Vrstva_4" data-name="Vrstva 4"><polyline class="cls-1" points="74.9 22.01 88.13 22.01 88.13 22.97 74.9 22.97"/><polygon class="cls-1" points="79.39 27.4 64.96 27.4 66.33 21.6 76.24 21.6 76.47 23.29 79.39 27.4"/><polyline class="cls-1" points="11.05 22.8 0.23 22.8 0.23 23.77 11.05 23.77"/><polygon class="cls-1" points="5.4 25.62 13.89 25.62 13.09 22.3 7.26 22.3 7.12 23.27 5.4 25.62"/><polygon class="cls-2" points="44.04 0 44.04 0.64 50.31 0.64 50.31 1.91 50.99 1.91 50.99 0.64 57.27 0.64 57.27 0 44.04 0"/><polygon class="cls-1" points="81.94 27.38 81.94 32.7 59.15 32.7 59.15 32.06 1.93 32.06 4.18 25.47 16.55 25.34 26.3 21.66 29.5 21.66 25.25 10.05 33.83 6.67 39.51 20.39 46.74 20.39 46.74 5.38 48.06 5.38 48.06 2.15 53.24 2.15 53.24 5.29 54.94 5.29 54.94 14.09 57.95 14.09 57.95 21.09 59.49 21.09 59.49 27.38 81.94 27.38"/><path class="cls-3" d="M91.33,40.91c-.38.72-.74,1.46-1.09,2.22a66.09,66.09,0,0,0-2.72,6.67H5.24a53.9,53.9,0,0,0-1.1-7.29c-.12-.54-.26-1.08-.4-1.6Z"/><path class="cls-4" d="M99.49,27.79s-7.85,12.48-8.16,13.12H3.74a50.85,50.85,0,0,0-3.23-9H74.46l2.82-2.18Z"/></g></svg>