<svg xmlns="http://www.w3.org/2000/svg" viewBox="0 0 50 50"><defs><style>.cls-1,.cls-2{stroke:#000;stroke-miterlimit:10;stroke-width:0.5px;}.cls-2,.cls-3{fill:#fff;}</style></defs><g id="Vrstva_3" data-name="Vrstva 3"><path class="cls-1" d="M25,.54a57.66,57.66,0,0,0-8.39,29.72c0,17.34,8.39,19.2,8.39,19.2s8.39-1.86,8.39-19.2A57.66,57.66,0,0,0,25,.54Z"/><circle class="cls-2" cx="25" cy="15.41" r="3.26"/><rect class="cls-3" x="24" y="7.48" width="0.43" height="5.65"/><rect class="cls-3" x="25.56" y="7.48" width="0.43" height="5.65"/><polygon class="cls-3" points="27.68 24 22.32 24 19.65 27.44 19.65 30.83 20.98 37.84 23.78 40.87 26.22 40.87 29.02 37.84 30.35 30.83 30.35 27.44 27.68 24"/><rect class="cls-1" x="21.73" y="30.14" width="6.53" height="0.28"/></g></svg>